<?xml version="1.0" encoding="UTF-8" standalone="no"?>
<!DOCTYPE svg PUBLIC "-//W3C//DTD SVG 1.1//EN" "http://www.w3.org/Graphics/SVG/1.1/DTD/svg11.dtd">
<svg width="100%" height="100%" viewBox="0 0 1202 909" version="1.1" xmlns="http://www.w3.org/2000/svg" xmlns:xlink="http://www.w3.org/1999/xlink" xml:space="preserve" xmlns:serif="http://www.serif.com/" style="fill-rule:evenodd;clip-rule:evenodd;stroke-linejoin:round;stroke-miterlimit:2;">
    <g transform="matrix(1,0,0,1,-14.1472,-49.8591)">
        <g id="LovesHearts">
            <g transform="matrix(1,0,0,1,-7.13535,-86.4117)">
                <g transform="matrix(1.2167,0,0,1,-114.09,58.2713)">
                    <path d="M239.943,129.529C253.015,101.403 279.16,101.403 292.232,115.466C305.305,129.529 305.305,157.656 292.232,185.782C283.081,206.877 259.551,227.972 239.943,242.035C220.335,227.972 196.805,206.877 187.654,185.782C174.582,157.656 174.582,129.529 187.654,115.466C200.726,101.403 226.871,101.403 239.943,129.529Z" style="fill:rgb(239,66,122);fill-opacity:0.67;"/>
                </g>
                <path d="M484.805,314.26C505.75,281.34 547.64,281.34 568.586,297.8C589.532,314.26 589.532,347.18 568.586,380.1C553.924,404.79 516.223,429.479 484.805,445.939C453.387,429.479 415.686,404.79 401.024,380.1C380.079,347.18 380.079,314.26 401.024,297.8C421.969,281.34 463.86,281.34 484.805,314.26Z" style="fill:rgb(239,66,122);fill-opacity:0.67;"/>
                <g transform="matrix(2.03424,0,0,1.52384,21.2825,-337.106)">
                    <path d="M76.966,579.938C93.169,541.306 125.576,541.306 141.779,560.622C157.983,579.938 157.983,618.571 141.779,657.203C130.437,686.178 101.271,715.152 76.966,734.469C52.661,715.152 23.495,686.178 12.152,657.203C-4.051,618.571 -4.051,579.938 12.152,560.622C28.356,541.306 60.762,541.306 76.966,579.938Z" style="fill:rgb(239,66,122);fill-opacity:0.67;"/>
                </g>
            </g>
            <g>
                <g transform="matrix(1.2167,0,0,1,605.217,311.537)">
                    <path d="M239.943,129.529C253.015,101.403 279.16,101.403 292.232,115.466C305.305,129.529 305.305,157.656 292.232,185.782C283.081,206.877 259.551,227.972 239.943,242.035C220.335,227.972 196.805,206.877 187.654,185.782C174.582,157.656 174.582,129.529 187.654,115.466C200.726,101.403 226.871,101.403 239.943,129.529Z" style="fill:rgb(239,66,122);fill-opacity:0.67;"/>
                </g>
                <g transform="matrix(1,0,0,1,631.518,-124.429)">
                    <path d="M484.805,314.26C505.75,281.34 547.64,281.34 568.586,297.8C589.532,314.26 589.532,347.18 568.586,380.1C553.924,404.79 516.223,429.479 484.805,445.939C453.387,429.479 415.686,404.79 401.024,380.1C380.079,347.18 380.079,314.26 401.024,297.8C421.969,281.34 463.86,281.34 484.805,314.26Z" style="fill:rgb(239,66,122);fill-opacity:0.67;"/>
                </g>
                <g transform="matrix(2.03424,0,0,1.52384,640,-785.105)">
                    <path d="M76.966,579.938C93.169,541.306 125.576,541.306 141.779,560.622C157.983,579.938 157.983,618.571 141.779,657.203C130.437,686.178 101.271,715.152 76.966,734.469C52.661,715.152 23.495,686.178 12.152,657.203C-4.051,618.571 -4.051,579.938 12.152,560.622C28.356,541.306 60.762,541.306 76.966,579.938Z" style="fill:rgb(239,66,122);fill-opacity:0.67;"/>
                </g>
            </g>
            <g transform="matrix(-1,0,0,1,1277,135.806)">
                <g transform="matrix(1.2167,0,0,1,606.885,514.375)">
                    <path d="M239.943,129.529C253.015,101.403 279.16,101.403 292.232,115.466C305.305,129.529 305.305,157.656 292.232,185.782C283.081,206.877 259.551,227.972 239.943,242.035C220.335,227.972 196.805,206.877 187.654,185.782C174.582,157.656 174.582,129.529 187.654,115.466C200.726,101.403 226.871,101.403 239.943,129.529Z" style="fill:rgb(239,66,122);fill-opacity:0.67;"/>
                </g>
                <g transform="matrix(1,0,0,1,166.831,94.2407)">
                    <path d="M484.805,314.26C505.75,281.34 547.64,281.34 568.586,297.8C589.532,314.26 589.532,347.18 568.586,380.1C553.924,404.79 516.223,429.479 484.805,445.939C453.387,429.479 415.686,404.79 401.024,380.1C380.079,347.18 380.079,314.26 401.024,297.8C421.969,281.34 463.86,281.34 484.805,314.26Z" style="fill:rgb(239,66,122);fill-opacity:0.67;"/>
                </g>
                <g transform="matrix(2.03424,0,0,1.52384,72.1809,-296.938)">
                    <path d="M76.966,579.938C93.169,541.306 125.576,541.306 141.779,560.622C157.983,579.938 157.983,618.571 141.779,657.203C130.437,686.178 101.271,715.152 76.966,734.469C52.661,715.152 23.495,686.178 12.152,657.203C-4.051,618.571 -4.051,579.938 12.152,560.622C28.356,541.306 60.762,541.306 76.966,579.938Z" style="fill:rgb(239,66,122);fill-opacity:0.67;"/>
                </g>
            </g>
        </g>
    </g>
</svg>
